<svg width="67" height="68" viewBox="0 0 67 68" fill="none" xmlns="http://www.w3.org/2000/svg">
<path d="M5.51839 8.5504C5.06057 8.09257 4.31843 8.09257 3.86061 8.5504L2.93088 9.48012L2.00116 8.5504C1.54333 8.09257 0.801197 8.09257 0.34337 8.5504C-0.114457 9.00823 -0.114457 9.75037 0.34337 10.2082L1.27309 11.1379L0.34337 12.0676C-0.114457 12.5255 -0.114457 13.2676 0.34337 13.7254C0.572283 13.9543 0.872421 14.0689 1.17226 14.0689C1.47211 14.0689 1.77225 13.9543 2.00116 13.7254L2.93088 12.7957L3.86061 13.7254C4.08952 13.9543 4.38966 14.0689 4.6895 14.0689C4.98934 14.0689 5.28948 13.9543 5.51839 13.7254C5.97622 13.2676 5.97622 12.5255 5.51839 12.0676L4.58867 11.1379L5.51839 10.2082C5.97651 9.75037 5.97651 9.00823 5.51839 8.5504Z" fill="#00B1B9"/>
<path d="M4.6895 23.4482C5.33701 23.4482 5.86191 22.9233 5.86191 22.2758C5.86191 21.6283 5.33701 21.1034 4.6895 21.1034C4.042 21.1034 3.51709 21.6283 3.51709 22.2758C3.51709 22.9233 4.042 23.4482 4.6895 23.4482Z" fill="#00B1B9"/>
<path d="M62.7238 0C60.4613 0 58.6204 1.84098 58.6204 4.10344C58.6204 6.3659 60.4613 8.20688 62.7238 8.20688C64.9863 8.20688 66.8272 6.3659 66.8272 4.10344C66.8272 1.84098 64.9863 0 62.7238 0ZM62.7238 5.86206C61.7539 5.86206 60.9652 5.07332 60.9652 4.10344C60.9652 3.13356 61.7539 2.34482 62.7238 2.34482C63.6937 2.34482 64.4824 3.13356 64.4824 4.10344C64.4824 5.07332 63.6937 5.86206 62.7238 5.86206Z" fill="#00B1B9"/>
<path d="M18.7583 27.5227V6.44829C18.7583 4.18583 16.9173 2.34485 14.6549 2.34485C12.3924 2.34485 10.5514 4.18583 10.5514 6.44829V27.5227C8.48211 28.4729 7.03418 30.5525 7.03418 32.9747V44.4045C7.03418 46.8267 8.48211 48.9063 10.5514 49.8565V63.8965C10.5514 66.1589 12.3924 67.9999 14.6549 67.9999C16.9173 67.9999 18.7583 66.1589 18.7583 63.8965V49.8565C20.8276 48.9063 22.2755 46.8267 22.2755 44.4045V32.9747C22.2755 30.5525 20.8276 28.4729 18.7583 27.5227ZM12.8962 6.44829C12.8962 5.47841 13.685 4.68967 14.6549 4.68967C15.6247 4.68967 16.4135 5.47841 16.4135 6.44829V26.9804C16.3634 26.9793 16.3167 26.9655 16.2663 26.9655H13.0434C12.993 26.9655 12.9464 26.9793 12.8962 26.9804V6.44829ZM16.4135 63.8965C16.4135 64.8663 15.6247 65.6551 14.6549 65.6551C13.685 65.6551 12.8962 64.8663 12.8962 63.8965V50.3988C12.9464 50.4 12.993 50.4137 13.0434 50.4137H16.2663C16.3167 50.4137 16.3634 50.4 16.4135 50.3988V63.8965ZM19.9307 44.4045C19.9307 46.4255 18.2873 48.0689 16.2663 48.0689H13.0434C11.0224 48.0689 9.379 46.4255 9.379 44.4045V32.9747C9.379 30.9537 11.0224 29.3103 13.0434 29.3103H16.2663C18.2873 29.3103 19.9307 30.9537 19.9307 32.9747V44.4045Z" fill="#00B1B9"/>
<path d="M14.655 30.4827C12.3925 30.4827 10.5515 32.3236 10.5515 34.5861C10.5515 36.8486 12.3925 38.6895 14.655 38.6895C16.9174 38.6895 18.7584 36.8486 18.7584 34.5861C18.7584 32.3236 16.9174 30.4827 14.655 30.4827ZM14.655 36.3447C13.6851 36.3447 12.8963 35.556 12.8963 34.5861C12.8963 33.6162 13.6851 32.8275 14.655 32.8275C15.6248 32.8275 16.4136 33.6162 16.4136 34.5861C16.4136 35.556 15.6248 36.3447 14.655 36.3447Z" fill="#00B1B9"/>
<path d="M37.5171 14.6262V6.44829C37.5171 4.18583 35.6761 2.34485 33.4136 2.34485C31.1512 2.34485 29.3102 4.18583 29.3102 6.44829V14.6262C27.2409 15.5764 25.793 17.656 25.793 20.0782V31.508C25.793 33.9302 27.2409 36.0098 29.3102 36.96V63.8965C29.3102 66.1589 31.1512 67.9999 33.4136 67.9999C35.6761 67.9999 37.5171 66.1589 37.5171 63.8965V36.96C39.5864 36.0098 41.0343 33.9302 41.0343 31.508V20.0782C41.0343 17.656 39.5864 15.5764 37.5171 14.6262ZM31.655 6.44829C31.655 5.47841 32.4438 4.68967 33.4136 4.68967C34.3835 4.68967 35.1723 5.47841 35.1723 6.44829V14.0839C35.1221 14.0827 35.0755 14.069 35.0251 14.069H31.8022C31.7518 14.069 31.7051 14.0827 31.655 14.0839V6.44829ZM35.1723 63.8965C35.1723 64.8663 34.3835 65.6551 33.4136 65.6551C32.4438 65.6551 31.655 64.8663 31.655 63.8965V37.5023C31.7051 37.5034 31.7518 37.5172 31.8022 37.5172H35.0251C35.0755 37.5172 35.1221 37.5034 35.1723 37.5023V63.8965ZM38.6895 31.508C38.6895 33.529 37.0461 35.1724 35.0251 35.1724H31.8022C29.7812 35.1724 28.1378 33.529 28.1378 31.508V20.0782C28.1378 18.0572 29.7812 16.4138 31.8022 16.4138H35.0251C37.0461 16.4138 38.6895 18.0572 38.6895 20.0782V31.508Z" fill="#00B1B9"/>
<path d="M33.4135 17.5862C31.151 17.5862 29.3101 19.4272 29.3101 21.6896C29.3101 23.9521 31.151 25.7931 33.4135 25.7931C35.676 25.7931 37.5169 23.9521 37.5169 21.6896C37.5169 19.4272 35.676 17.5862 33.4135 17.5862ZM33.4135 23.4482C32.4436 23.4482 31.6549 22.6595 31.6549 21.6896C31.6549 20.7197 32.4436 19.931 33.4135 19.931C34.3834 19.931 35.1721 20.7197 35.1721 21.6896C35.1721 22.6595 34.3834 23.4482 33.4135 23.4482Z" fill="#00B1B9"/>
<path d="M57.448 35.7296V6.44829C57.448 4.18583 55.607 2.34485 53.3446 2.34485C51.0821 2.34485 49.2411 4.18583 49.2411 6.44829V35.7296C47.1718 36.6798 45.7239 38.7594 45.7239 41.1816V52.6114C45.7239 55.0336 47.1718 57.1132 49.2411 58.0634V63.8965C49.2411 66.1589 51.0821 67.9999 53.3446 67.9999C55.607 67.9999 57.448 66.1589 57.448 63.8965V58.0634C59.5173 57.1132 60.9652 55.0336 60.9652 52.6114V41.1816C60.9652 38.7594 59.5173 36.6798 57.448 35.7296ZM51.5859 6.44829C51.5859 5.47841 52.3747 4.68967 53.3446 4.68967C54.3144 4.68967 55.1032 5.47841 55.1032 6.44829V35.1873C55.0531 35.1862 55.0064 35.1724 54.956 35.1724H51.7331C51.6827 35.1724 51.6361 35.1862 51.5859 35.1873V6.44829ZM55.1032 63.8965C55.1032 64.8663 54.3144 65.6551 53.3446 65.6551C52.3747 65.6551 51.5859 64.8663 51.5859 63.8965V58.6057C51.6361 58.6068 51.6827 58.6206 51.7331 58.6206H54.956C55.0064 58.6206 55.0531 58.6068 55.1032 58.6057V63.8965ZM58.6204 52.6114C58.6204 54.6324 56.977 56.2758 54.956 56.2758H51.7331C49.7121 56.2758 48.0687 54.6324 48.0687 52.6114V41.1816C48.0687 39.1606 49.7121 37.5172 51.7331 37.5172H54.956C56.977 37.5172 58.6204 39.1606 58.6204 41.1816V52.6114Z" fill="#00B1B9"/>
<path d="M53.3447 38.6896C51.0822 38.6896 49.2412 40.5306 49.2412 42.793C49.2412 45.0555 51.0822 46.8965 53.3447 46.8965C55.6071 46.8965 57.4481 45.0555 57.4481 42.793C57.4481 40.5306 55.6071 38.6896 53.3447 38.6896ZM53.3447 44.5516C52.3748 44.5516 51.586 43.7629 51.586 42.793C51.586 41.8231 52.3748 41.0344 53.3447 41.0344C54.3145 41.0344 55.1033 41.8231 55.1033 42.793C55.1033 43.7629 54.3145 44.5516 53.3447 44.5516Z" fill="#00B1B9"/>
<path d="M35.1723 26.9655H31.6551C31.0076 26.9655 30.4827 27.4904 30.4827 28.1379C30.4827 28.7853 31.0076 29.3103 31.6551 29.3103H35.1723C35.8198 29.3103 36.3447 28.7853 36.3447 28.1379C36.3447 27.4904 35.8198 26.9655 35.1723 26.9655Z" fill="#00B1B9"/>
<path d="M35.1723 30.4827H31.6551C31.0076 30.4827 30.4827 31.0076 30.4827 31.6551C30.4827 32.3025 31.0076 32.8275 31.6551 32.8275H35.1723C35.8198 32.8275 36.3447 32.3025 36.3447 31.6551C36.3447 31.0076 35.8198 30.4827 35.1723 30.4827Z" fill="#00B1B9"/>
<path d="M55.1032 48.0688H51.586C50.9385 48.0688 50.4136 48.5938 50.4136 49.2413C50.4136 49.8887 50.9385 50.4137 51.586 50.4137H55.1032C55.7507 50.4137 56.2756 49.8887 56.2756 49.2413C56.2756 48.5938 55.7507 48.0688 55.1032 48.0688Z" fill="#00B1B9"/>
<path d="M55.1032 51.5861H51.586C50.9385 51.5861 50.4136 52.111 50.4136 52.7585C50.4136 53.4059 50.9385 53.9309 51.586 53.9309H55.1032C55.7507 53.9309 56.2756 53.4059 56.2756 52.7585C56.2756 52.111 55.7507 51.5861 55.1032 51.5861Z" fill="#00B1B9"/>
<path d="M16.4135 39.8621H12.8963C12.2488 39.8621 11.7239 40.387 11.7239 41.0345C11.7239 41.6819 12.2488 42.2069 12.8963 42.2069H16.4135C17.061 42.2069 17.5859 41.6819 17.5859 41.0345C17.5859 40.387 17.061 39.8621 16.4135 39.8621Z" fill="#00B1B9"/>
<path d="M16.4135 43.3793H12.8963C12.2488 43.3793 11.7239 43.9042 11.7239 44.5517C11.7239 45.1991 12.2488 45.7241 12.8963 45.7241H16.4135C17.061 45.7241 17.5859 45.1991 17.5859 44.5517C17.5859 43.9042 17.061 43.3793 16.4135 43.3793Z" fill="#00B1B9"/>
</svg>
