<svg width="35" height="35" viewBox="0 0 35 35" fill="none" xmlns="http://www.w3.org/2000/svg">
<path d="M33.056 1.94919C32.2053 1.07972 30.9462 0.758133 29.7721 1.09844L2.39475 9.00878C1.15604 9.35249 0.278062 10.3343 0.0415513 11.5798C-0.200064 12.8491 0.643888 14.4621 1.74647 15.1359L10.3068 20.363C11.1848 20.9007 12.318 20.7662 13.0445 20.038L22.847 10.2356C23.3404 9.72342 24.1571 9.72342 24.6506 10.2356C25.144 10.7273 25.144 11.5287 24.6506 12.0392L14.8311 21.8416C14.1029 22.5699 13.9668 23.6997 14.5027 24.5793L19.7332 33.172C20.3457 34.1912 21.4007 34.7714 22.5577 34.7714C22.6938 34.7714 22.847 34.7714 22.9831 34.7527C24.3103 34.5842 25.3652 33.6807 25.7565 32.4046L33.8728 5.23312C34.2301 4.07609 33.9068 2.81697 33.056 1.94919Z" fill="#00B1B9"/>
</svg>
