<svg width="72" height="64" viewBox="0 0 72 64" fill="none" xmlns="http://www.w3.org/2000/svg">
<path d="M35.7729 45.2055C42.2451 45.2055 47.5109 39.9399 47.5109 33.4675V11.738C47.5109 7.95655 45.6722 4.38457 42.5923 2.18299C41.9641 1.73416 41.0915 1.87948 40.6429 2.50719C40.1941 3.13503 40.3391 4.00783 40.967 4.45667C42.2467 5.3714 43.2444 6.59676 43.888 7.98855H41.2227C40.4511 7.98855 39.8253 8.61416 39.8253 9.38593C39.8253 10.1577 40.4511 10.7833 41.2227 10.7833H44.6637C44.6978 11.0988 44.7161 11.4173 44.7161 11.738V13.5781H41.2227C40.4511 13.5781 39.8253 14.2037 39.8253 14.9754C39.8253 15.7472 40.4511 16.3728 41.2227 16.3728H44.7161V19.1676H41.2227C40.4511 19.1676 39.8253 19.7932 39.8253 20.565C39.8253 21.3367 40.4511 21.9623 41.2227 21.9623H44.7161V24.7571H26.8297V21.9623H30.3231C31.0948 21.9623 31.7205 21.3367 31.7205 20.565C31.7205 19.7932 31.0948 19.1676 30.3231 19.1676H26.8297V16.3728H30.3231C31.0948 16.3728 31.7205 15.7472 31.7205 14.9754C31.7205 14.2037 31.0948 13.5781 30.3231 13.5781H26.8297V11.738C26.8297 11.4173 26.848 11.0988 26.8821 10.7833H30.3231C31.0948 10.7833 31.7205 10.1577 31.7205 9.38593C31.7205 8.61416 31.0948 7.98855 30.3231 7.98855H27.6572C28.3053 6.58698 29.3125 5.35463 30.6058 4.43753C31.2353 3.99106 31.3836 3.11882 30.9371 2.4893C30.4908 1.85992 29.6186 1.71152 28.989 2.15784C25.8869 4.35816 24.0349 7.93936 24.0349 11.738V33.4675C24.0349 39.9399 29.3007 45.2055 35.7729 45.2055ZM26.8297 27.5519H44.7161V33.4675C44.7161 38.3989 40.7043 42.4108 35.7729 42.4108C30.8415 42.4108 26.8297 38.3989 26.8297 33.4675V27.5519Z" fill="#00B1B9"/>
<path d="M51.7032 32.0702C50.9316 32.0702 50.3058 32.6958 50.3058 33.4676C50.3058 41.481 43.7865 48.0003 35.7731 48.0003C27.7597 48.0003 21.2403 41.481 21.2403 33.4676C21.2403 32.6958 20.6146 32.0702 19.8429 32.0702C19.0713 32.0702 18.4456 32.6958 18.4456 33.4676C18.4456 41.5768 24.0454 48.4018 31.5809 50.2813V55.0699C27.6199 55.2941 24.4659 58.5866 24.4659 62.6027C24.4659 63.3744 25.0916 64 25.8633 64H45.6829C46.4545 64 47.0802 63.3744 47.0802 62.6027C47.0802 58.5865 43.9262 55.2941 39.9652 55.0699V50.2813C47.5007 48.4018 53.1006 41.5768 53.1006 33.4676C53.1006 32.6958 52.4748 32.0702 51.7032 32.0702ZM44.0759 61.2053H27.4703C28.0683 59.2653 29.8779 57.8516 32.0117 57.8516H39.5344C41.6682 57.8516 43.4778 59.2653 44.0759 61.2053ZM37.1704 50.7951V55.0568H34.3757V50.7951H37.1704Z" fill="#00B1B9"/>
<path d="M1.39738 10.8702C0.625747 10.8702 0 11.4958 0 12.2676V30.457C0 31.2288 0.625747 31.8544 1.39738 31.8544C2.16901 31.8544 2.79476 31.2288 2.79476 30.457V12.2676C2.79476 11.4958 2.16901 10.8702 1.39738 10.8702Z" fill="#00B1B9"/>
<path d="M14.2533 10.8702C13.4817 10.8702 12.856 11.4958 12.856 12.2676V30.457C12.856 31.2288 13.4817 31.8544 14.2533 31.8544C15.025 31.8544 15.6507 31.2288 15.6507 30.457V12.2676C15.6507 11.4958 15.025 10.8702 14.2533 10.8702Z" fill="#00B1B9"/>
<path d="M7.82536 3.2019C7.05373 3.2019 6.42798 3.82751 6.42798 4.59928V38.1252C6.42798 38.897 7.05373 39.5226 7.82536 39.5226C8.59699 39.5226 9.22274 38.897 9.22274 38.1252V4.59928C9.22274 3.82751 8.59699 3.2019 7.82536 3.2019Z" fill="#00B1B9"/>
<path d="M70.1486 10.8702C69.377 10.8702 68.7512 11.4958 68.7512 12.2676V30.457C68.7512 31.2288 69.377 31.8544 70.1486 31.8544C70.9202 31.8544 71.546 31.2288 71.546 30.457V12.2676C71.546 11.4958 70.9202 10.8702 70.1486 10.8702Z" fill="#00B1B9"/>
<path d="M57.2926 10.8702C56.521 10.8702 55.8953 11.4958 55.8953 12.2676V30.457C55.8953 31.2288 56.521 31.8544 57.2926 31.8544C58.0643 31.8544 58.69 31.2288 58.69 30.457V12.2676C58.69 11.4958 58.0643 10.8702 57.2926 10.8702Z" fill="#00B1B9"/>
<path d="M63.7206 3.2019C62.949 3.2019 62.3232 3.82751 62.3232 4.59928V38.1252C62.3232 38.897 62.949 39.5226 63.7206 39.5226C64.4923 39.5226 65.118 38.897 65.118 38.1252V4.59928C65.118 3.82751 64.4923 3.2019 63.7206 3.2019Z" fill="#00B1B9"/>
<path d="M35.7729 36.3096C36.1404 36.3096 36.5009 36.1601 36.7607 35.9002C37.0206 35.6388 37.1702 35.2797 37.1702 34.9122C37.1702 34.5447 37.0207 34.1842 36.7607 33.9229C36.5009 33.663 36.1404 33.5134 35.7729 33.5134C35.4054 33.5134 35.0448 33.663 34.7849 33.9229C34.525 34.1842 34.3755 34.5433 34.3755 34.9122C34.3755 35.2797 34.5249 35.6388 34.7849 35.9002C35.0448 36.1601 35.4054 36.3096 35.7729 36.3096Z" fill="#00B1B9"/>
<path d="M35.7912 2.79476C36.1587 2.79476 36.5192 2.64524 36.7791 2.38533C37.0389 2.12541 37.1886 1.76489 37.1886 1.39738C37.1886 1.02987 37.039 0.669345 36.7791 0.409432C36.5192 0.14952 36.1587 0 35.7912 0C35.4223 0 35.0631 0.14952 34.8018 0.409432C34.5419 0.669345 34.3938 1.02987 34.3938 1.39738C34.3938 1.76489 34.5419 2.12541 34.8018 2.38533C35.0631 2.64524 35.4223 2.79476 35.7912 2.79476Z" fill="#00B1B9"/>
</svg>
