<?xml version="1.0" standalone="no"?>
<!DOCTYPE svg PUBLIC "-//W3C//DTD SVG 20010904//EN"
 "http://www.w3.org/TR/2001/REC-SVG-20010904/DTD/svg10.dtd">
<svg version="1.0" xmlns="http://www.w3.org/2000/svg"
 width="540.000000pt" height="538.000000pt" viewBox="0 0 540.000000 538.000000"
 preserveAspectRatio="xMidYMid meet">

<g transform="translate(0.000000,538.000000) scale(0.100000,-0.100000)"
fill="#000000" stroke="none">
<path d="M1 4293 l0 -1088 29 110 c208 804 751 1444 1520 1792 311 141 607
213 997 244 289 23 663 -23 973 -118 667 -204 1217 -632 1567 -1218 129 -216
218 -429 283 -680 l29 -110 1 1078 0 1077 -2700 0 -2700 0 1 -1087z"/>
<path d="M2573 5022 c-30 -3 -32 -6 -52 -80 -11 -42 -23 -92 -27 -109 -4 -18
-8 -33 -10 -33 -5 0 -77 79 -86 95 -5 8 6 34 27 64 l35 51 -45 0 c-40 0 -46
-3 -61 -32 -30 -60 -38 -65 -44 -27 -4 29 -9 34 -35 37 -53 4 -55 -4 -34 -108
29 -145 27 -140 52 -140 37 0 50 15 43 45 -4 16 -2 33 5 41 10 12 18 8 47 -26
l35 -41 61 6 c67 7 72 10 78 40 2 15 11 20 38 20 28 0 35 -4 40 -25 5 -19 13
-25 39 -26 18 -1 35 4 37 10 3 7 -12 61 -33 121 -41 115 -48 123 -110 117z
m36 -124 c1 -10 -6 -18 -14 -18 -16 0 -19 20 -8 60 l7 25 7 -25 c4 -14 7 -33
8 -42z"/>
<path d="M2694 5017 c-9 -24 0 -52 16 -49 8 2 24 1 37 -3 23 -5 23 -8 21 -98
l-3 -92 35 0 35 0 3 70 c3 108 7 115 47 115 32 0 35 2 35 30 0 29 -1 30 -49
30 -26 0 -76 3 -109 6 -51 6 -63 4 -68 -9z"/>
<path d="M2957 4973 c-3 -21 -9 -77 -13 -125 l-7 -88 37 0 c22 0 36 5 36 13 0
6 7 57 15 111 20 133 21 126 -24 126 -37 0 -39 -2 -44 -37z"/>
<path d="M3096 4978 c-11 -37 -36 -221 -31 -229 4 -5 19 -9 35 -9 24 0 31 5
36 28 12 55 12 55 58 48 39 -6 44 -5 49 15 8 31 3 36 -44 44 -30 5 -39 11 -37
23 4 17 22 19 82 11 25 -3 30 0 37 23 8 31 8 31 -85 47 -77 14 -96 14 -100 -1z"/>
<path d="M2053 4944 l-33 -14 0 -125 c0 -71 4 -125 9 -125 32 0 61 21 61 44 0
20 7 27 33 34 28 8 34 6 45 -16 10 -18 19 -22 35 -18 12 3 28 6 35 6 22 0 12
23 -51 125 -67 107 -78 114 -134 89z m67 -121 c0 -7 -7 -13 -15 -13 -11 0 -15
11 -15 38 l1 37 14 -25 c8 -14 14 -31 15 -37z"/>
<path d="M3325 4938 c-35 -107 -44 -183 -24 -220 25 -47 131 -63 172 -25 29
26 92 176 80 188 -5 5 -22 11 -38 14 -30 6 -30 5 -58 -74 -30 -86 -54 -108
-85 -77 -14 14 -13 22 6 90 12 41 22 79 22 84 0 6 -14 15 -31 21 -40 14 -39
14 -44 -1z"/>
<path d="M1846 4885 c-55 -20 -102 -37 -104 -40 -3 -3 0 -16 6 -31 12 -25 18
-26 70 -7 12 5 20 -10 56 -110 20 -55 31 -62 69 -48 l26 10 -29 87 c-31 90
-31 104 -1 104 29 0 41 19 29 46 -6 13 -14 24 -17 24 -3 -1 -51 -16 -105 -35z"/>
<path d="M1662 4812 l-33 -16 3 -68 c2 -38 1 -68 -1 -68 -2 0 -25 18 -52 41
-51 43 -72 46 -113 16 -17 -13 -15 -18 39 -113 31 -54 60 -103 64 -107 8 -8
61 11 61 22 0 3 -12 29 -26 56 l-27 50 37 -33 c38 -34 44 -36 70 -26 13 5 15
17 10 63 l-6 56 26 -52 c14 -29 32 -53 40 -53 25 0 46 12 46 25 0 16 -84 203
-96 215 -5 4 -24 1 -42 -8z"/>
<path d="M3656 4718 c-48 -50 -85 -96 -83 -102 2 -6 16 -15 30 -20 21 -8 31
-6 46 8 18 16 24 17 51 6 27 -11 30 -16 25 -41 -5 -24 -2 -30 25 -44 18 -9 34
-15 36 -12 4 4 25 121 38 214 6 42 5 43 -34 63 -21 11 -41 20 -44 20 -2 0 -43
-41 -90 -92z m94 -15 c0 -28 -17 -50 -29 -38 -8 8 -6 18 5 33 18 27 24 28 24
5z"/>
<path d="M3913 4708 c-5 -7 -27 -47 -48 -88 -44 -87 -43 -115 6 -161 39 -36
87 -46 127 -25 16 8 53 47 82 87 49 67 50 72 33 85 -46 36 -48 36 -91 -30 -50
-76 -65 -90 -92 -81 -30 10 -25 41 21 118 22 38 39 70 37 71 -24 16 -58 36
-61 36 -3 0 -9 -6 -14 -12z"/>
<path d="M1238 4574 l-36 -26 39 -116 c21 -64 43 -120 48 -125 5 -5 20 2 36
15 25 22 26 27 15 47 -13 25 -12 26 33 52 14 8 23 7 37 -6 14 -13 23 -14 37
-6 53 28 49 35 -57 115 -55 42 -104 76 -108 76 -4 0 -24 -12 -44 -26z m100
-100 c1 -1 -4 -7 -12 -13 -12 -10 -18 -7 -30 18 -23 43 -20 48 12 20 15 -13
28 -24 30 -25z"/>
<path d="M2440 4584 c-47 -8 -110 -17 -140 -20 -30 -4 -64 -13 -75 -20 -11 -7
-29 -13 -40 -13 -11 1 -51 -8 -90 -20 -38 -12 -77 -23 -85 -25 -8 -2 -54 -23
-101 -45 -47 -23 -91 -41 -98 -41 -6 0 -11 -4 -11 -10 0 -5 -9 -10 -20 -10
-12 0 -32 -11 -46 -25 -14 -14 -30 -25 -37 -25 -14 0 -68 -34 -143 -91 -28
-22 -56 -39 -62 -39 -7 0 -12 -7 -12 -15 0 -9 -6 -12 -17 -8 -10 4 -14 2 -10
-4 4 -6 -4 -18 -17 -27 -42 -27 -76 -63 -68 -71 4 -5 1 -5 -6 -1 -17 10 -77
-48 -67 -65 5 -7 4 -10 -3 -5 -10 6 -131 -119 -133 -139 0 -5 -7 -14 -15 -18
-8 -4 -14 -15 -14 -22 0 -8 -6 -15 -14 -15 -15 0 -77 -92 -89 -133 -4 -15 -12
-25 -17 -22 -5 3 -12 -7 -16 -22 -4 -15 -14 -37 -23 -48 -27 -32 -111 -212
-111 -237 0 -7 -6 -22 -14 -33 -7 -11 -17 -36 -21 -55 -4 -19 -10 -39 -13 -45
-4 -5 -7 -14 -8 -20 -1 -5 -11 -46 -22 -90 -26 -104 -36 -163 -33 -199 1 -15
-4 -34 -10 -42 -17 -20 -5 -448 15 -544 25 -122 51 -221 56 -216 3 2 6 -12 8
-32 1 -21 11 -56 22 -79 11 -24 20 -47 20 -52 0 -5 18 -44 40 -87 22 -43 40
-84 40 -92 0 -7 7 -15 15 -18 10 -4 13 -13 9 -27 -5 -15 -3 -19 9 -14 11 4 14
2 10 -9 -3 -7 0 -14 6 -14 6 0 11 -10 11 -22 1 -22 1 -23 15 -4 18 23 20 14 4
-16 -8 -15 -8 -19 0 -14 6 4 11 2 11 -4 0 -6 14 -31 30 -55 17 -24 30 -48 30
-54 0 -6 4 -11 10 -11 5 0 23 -20 40 -45 18 -26 45 -60 61 -78 80 -86 102
-107 110 -107 5 0 9 -6 9 -13 0 -7 13 -23 30 -35 16 -13 65 -53 107 -90 78
-68 152 -120 228 -161 22 -11 51 -29 65 -39 13 -9 21 -11 17 -5 -6 9 -3 11 7
7 9 -3 16 -11 16 -16 0 -6 7 -7 16 -4 8 3 12 2 9 -4 -3 -5 12 -16 32 -25 21
-9 46 -21 56 -26 10 -5 22 -7 27 -4 5 3 11 1 15 -5 3 -5 15 -10 26 -10 10 0
19 -5 19 -11 0 -6 7 -9 15 -5 8 3 15 1 15 -3 0 -5 23 -14 50 -21 28 -7 53 -16
56 -21 3 -5 18 -9 33 -9 15 0 31 -4 37 -9 5 -5 30 -12 56 -14 26 -3 52 -9 58
-12 24 -15 222 -35 240 -25 10 6 25 10 32 9 7 0 4 -5 -7 -10 -15 -7 -8 -8 23
-4 32 4 42 2 36 -6 -4 -7 -3 -9 3 -6 5 3 71 8 147 11 75 2 143 9 150 15 6 5
21 8 32 5 10 -3 45 2 78 10 32 9 63 13 67 10 5 -3 12 2 15 11 5 13 9 14 15 4
6 -11 9 -10 15 4 3 9 14 17 23 17 14 0 14 -2 1 -11 -19 -14 32 -3 75 16 57 24
130 49 138 47 5 -1 5 3 1 9 -4 8 0 9 16 4 15 -5 20 -4 16 4 -5 7 3 11 22 11
16 0 35 7 42 15 7 8 19 15 26 15 8 0 14 5 14 12 0 6 3 9 6 5 6 -6 123 48 134
62 3 3 14 8 25 9 10 2 33 17 50 34 16 16 40 34 53 39 14 5 20 14 16 21 -5 7
-3 8 5 3 8 -4 18 1 27 14 9 12 20 19 25 16 5 -4 9 1 9 10 0 11 5 15 15 11 8
-3 15 -1 15 5 0 11 30 44 39 44 3 0 5 4 3 8 -1 5 2 6 8 2 6 -3 27 12 47 35 24
26 42 39 52 35 13 -5 14 -4 4 6 -14 14 -17 30 -5 27 15 -3 42 15 42 29 0 8 5
11 10 8 6 -3 18 8 28 24 9 17 25 34 35 37 11 3 16 12 13 20 -3 9 -1 12 4 9 6
-3 10 1 10 9 0 9 7 16 16 16 13 0 14 3 5 14 -10 12 -8 14 11 9 17 -3 19 -2 9
5 -11 8 -11 11 1 18 13 8 30 37 32 56 1 3 5 10 10 15 6 5 6 2 1 -7 -5 -9 0 -8
14 4 12 11 20 25 17 32 -3 7 -2 14 2 16 11 5 72 86 72 95 0 4 -5 1 -10 -7 -6
-9 -10 -10 -10 -3 0 7 8 17 18 22 9 6 13 11 8 11 -5 0 -4 6 2 13 20 24 48 83
67 139 10 31 23 54 28 51 6 -4 8 3 5 15 -4 12 -2 20 2 17 5 -3 12 10 16 30 3
19 10 32 15 29 5 -3 6 1 3 9 -3 8 2 20 11 27 8 7 15 20 15 29 0 14 -2 14 -10
1 -6 -9 -10 -10 -10 -3 0 6 5 15 11 19 6 3 9 15 6 25 -3 10 0 20 5 21 5 2 10
20 11 41 0 20 4 37 8 37 4 0 10 29 14 65 3 36 11 68 16 71 6 3 8 24 5 48 -3
22 -3 33 2 24 4 -10 9 19 11 70 8 156 0 407 -11 389 -4 -7 -8 7 -9 31 -1 23
-2 48 -3 55 0 6 -6 29 -13 50 -7 21 -8 35 -3 32 16 -10 11 11 -5 25 -8 7 -15
25 -15 41 0 15 -5 31 -10 34 -6 4 -8 14 -5 24 3 9 -2 26 -10 37 -8 10 -15 29
-15 41 0 12 -4 25 -10 28 -5 3 -10 17 -10 30 0 13 -11 45 -25 71 -14 26 -23
49 -20 52 2 3 -3 11 -13 19 -9 8 -11 12 -5 8 9 -4 11 -1 7 9 -3 9 -10 13 -15
10 -5 -3 -6 2 -3 10 3 9 2 16 -4 16 -5 0 -13 7 -16 16 -3 8 -2 12 4 9 6 -3 10
-2 10 4 0 5 -7 14 -16 19 -8 5 -16 15 -18 23 -3 21 -27 63 -43 74 -8 6 -13 17
-11 25 2 9 -4 14 -14 14 -10 -1 -17 1 -16 5 4 18 -17 64 -36 79 -23 18 -41 50
-37 66 1 5 -6 3 -15 -5 -15 -13 -16 -12 -9 11 7 23 7 24 -10 10 -17 -14 -18
-14 -5 10 13 24 12 24 -5 10 -17 -13 -18 -13 -13 1 4 9 -1 21 -12 29 -11 8
-16 18 -13 24 4 5 -1 7 -10 3 -11 -4 -17 -1 -17 8 0 8 -4 15 -10 15 -5 0 -9 6
-7 13 1 6 -4 11 -11 9 -8 -1 -11 2 -8 7 7 11 -18 33 -27 24 -4 -3 -7 -1 -7 6
0 7 -4 10 -9 7 -5 -3 -8 2 -7 12 0 10 -6 17 -15 16 -11 -1 -15 6 -13 22 1 15
-2 21 -11 18 -18 -7 -77 37 -71 53 3 8 -1 10 -11 6 -12 -5 -15 -2 -10 10 4 12
2 14 -10 10 -12 -5 -14 -3 -8 8 8 12 6 12 -8 0 -15 -12 -17 -11 -17 3 0 9 -7
16 -16 16 -10 0 -14 6 -10 15 3 8 2 14 -2 13 -13 -2 -42 14 -37 22 3 4 -9 10
-26 14 -17 3 -28 10 -24 16 3 6 0 7 -9 4 -9 -3 -16 -2 -16 4 0 5 -13 15 -30
22 -16 7 -27 16 -24 21 3 5 -2 9 -11 9 -9 0 -29 9 -43 19 -27 19 -33 21 -53
21 -5 0 -8 4 -5 9 6 9 -69 41 -97 41 -9 0 -17 7 -17 15 0 12 -4 13 -19 5 -25
-13 -41 -13 -21 0 13 9 13 10 0 10 -8 0 -32 9 -53 20 -21 11 -42 18 -47 15 -4
-3 -21 1 -37 9 -34 18 -66 30 -74 28 -4 -1 -22 3 -40 9 -19 6 -46 12 -61 14
-15 2 -54 9 -88 15 -157 28 -442 35 -570 14z m430 -44 c976 -87 1729 -905
1730 -1882 0 -314 -69 -602 -209 -873 -51 -99 -121 -212 -169 -273 l-18 -23
-30 31 c-17 16 -37 49 -44 73 -7 29 -26 58 -53 83 -47 45 -122 104 -131 104
-3 0 -14 8 -24 17 -10 10 -89 69 -175 132 -87 62 -157 119 -157 126 0 6 -9 20
-21 31 -21 19 -21 19 -18 0 2 -10 -2 -21 -10 -24 -9 -3 -11 1 -6 17 6 20 3 22
-32 21 -56 0 -132 6 -136 11 -2 2 -40 50 -84 105 -45 56 -84 110 -87 120 -3
11 -3 2 0 -19 7 -51 24 -86 38 -81 7 3 18 -7 26 -21 7 -14 17 -25 22 -25 4 0
8 -5 8 -11 0 -7 17 -37 38 -67 52 -77 68 -104 75 -130 7 -28 -20 -84 -75 -158
-21 -28 -38 -54 -38 -57 0 -3 -19 -25 -41 -49 -23 -24 -49 -54 -58 -68 -26
-41 -75 -100 -84 -100 -11 0 -4 460 7 461 6 1 19 -16 30 -37 12 -22 22 -41 24
-43 1 -2 5 -1 9 3 8 7 -25 76 -64 134 l-22 33 20 47 c11 25 23 76 26 112 6 68
31 129 44 108 5 -7 7 3 7 22 -1 19 5 84 12 144 13 106 11 144 -17 245 -4 18
-3 22 6 17 25 -16 58 3 76 45 10 22 28 48 39 57 51 41 79 124 90 263 6 72 5
79 -19 107 l-26 31 31 43 c22 32 32 60 38 113 12 97 8 272 -7 320 -34 108 -48
125 -241 310 -90 86 -204 151 -317 180 -73 19 -266 19 -354 1 -151 -32 -275
-118 -380 -261 -24 -33 -66 -85 -94 -115 -29 -30 -67 -86 -85 -125 -31 -64
-34 -79 -38 -185 -3 -97 0 -124 17 -174 12 -33 28 -68 37 -77 15 -17 15 -21
-5 -62 -40 -82 -22 -212 41 -296 18 -25 44 -65 58 -90 16 -28 39 -52 62 -64
30 -15 36 -22 29 -35 -5 -10 -15 -52 -22 -96 -10 -64 -10 -97 1 -172 14 -107
19 -93 -96 -256 -105 -149 -120 -165 -152 -165 -29 0 -90 -38 -92 -58 -3 -19
-72 -68 -163 -115 -51 -26 -103 -54 -117 -61 -73 -42 -191 -126 -198 -141 -2
-5 -9 -8 -16 -8 -6 0 -41 -29 -76 -65 -36 -36 -68 -65 -72 -65 -8 0 -95 144
-138 230 -299 596 -252 1329 120 1886 390 584 1056 905 1750 844z m507 -86
c-3 -3 -12 -4 -19 -1 -8 3 -5 6 6 6 11 1 17 -2 13 -5z m170 -60 c-3 -3 -12 -4
-19 -1 -8 3 -5 6 6 6 11 1 17 -2 13 -5z m-847 -294 c6 -11 34 -36 63 -55 28
-19 45 -35 36 -35 -19 0 -92 56 -115 88 -8 12 -11 22 -5 22 6 0 15 -9 21 -20z
m-12 -41 c11 -17 11 -24 0 -37 -10 -12 -10 -14 0 -8 6 4 12 3 12 -3 0 -5 3
-18 7 -28 3 -10 -8 -1 -25 21 -18 21 -32 49 -32 62 0 27 19 24 38 -7z m-93 12
c3 -5 1 -12 -5 -16 -5 -3 -10 1 -10 9 0 18 6 21 15 7z m141 -66 c15 -14 23
-25 17 -25 -5 0 -20 11 -33 25 -13 14 -21 25 -17 25 3 0 18 -11 33 -25z m-175
-17 c-11 -18 -26 -34 -33 -36 -8 -2 -9 0 -3 5 6 4 18 20 28 36 10 15 20 27 23
27 3 0 -3 -15 -15 -32z m142 -62 c17 -14 27 -26 22 -26 -16 0 -75 57 -75 72 0
8 4 7 10 -4 6 -9 25 -28 43 -42z m-104 27 c-33 -41 -47 -53 -82 -68 -42 -17
-47 -18 -47 -6 0 5 14 11 31 15 18 3 46 21 63 40 32 36 60 50 35 19z m157 -11
c-4 -3 -14 2 -24 12 -16 18 -16 18 6 6 13 -6 21 -14 18 -18z m-501 -32 c-11
-5 -27 -9 -35 -9 -13 -1 -13 0 0 9 8 5 24 9 35 9 l20 0 -20 -9z m825 -5 c11
-13 10 -14 -4 -9 -9 3 -16 10 -16 15 0 13 6 11 20 -6z m-31 -43 c24 -15 43
-31 42 -35 -1 -4 10 -28 24 -53 15 -25 24 -48 22 -51 -3 -3 -13 9 -22 27 -24
47 -55 79 -105 111 -59 37 -22 38 39 1z m-774 8 c-3 -5 -11 -10 -16 -10 -6 0
-7 5 -4 10 3 6 11 10 16 10 6 0 7 -4 4 -10z m390 -6 c42 -17 135 -22 210 -10
46 7 53 6 93 -23 23 -18 40 -36 37 -41 -3 -6 -2 -10 3 -10 5 0 12 -9 15 -21 3
-12 10 -18 15 -15 6 3 19 -12 31 -34 22 -43 27 -70 12 -70 -5 0 -3 -13 4 -28
8 -15 15 -52 15 -82 0 -222 -1 -265 -9 -273 -5 -5 -26 -6 -46 -3 -28 6 -35 11
-31 23 8 19 -53 77 -98 93 -71 27 -73 29 -33 29 44 1 102 -21 133 -50 30 -28
41 -7 17 34 -21 35 -73 74 -112 84 -62 15 -252 -51 -260 -91 -5 -31 -22 -42
-60 -39 -34 3 -34 2 -13 -9 18 -9 31 -9 55 0 17 6 32 10 34 8 2 -1 -6 -25 -18
-51 -20 -46 -21 -61 -18 -249 4 -187 3 -201 -14 -204 -10 -2 -30 4 -45 14 -15
10 -35 17 -45 15 -12 -1 -20 5 -24 18 -9 36 -26 24 -20 -14 5 -30 1 -38 -26
-61 -47 -39 -98 -59 -108 -42 -14 21 -10 77 7 109 8 17 13 40 11 52 -4 21 -5
22 -11 2 -10 -30 -53 -24 -89 11 -56 56 -96 165 -87 239 5 38 7 40 43 43 25 2
48 -3 65 -14 40 -27 189 -27 191 -1 1 5 -42 9 -94 10 -106 2 -130 13 -100 47
22 24 35 26 35 5 0 -21 43 -39 74 -31 17 4 26 13 26 26 0 24 13 26 30 5 14
-17 13 -18 -12 -31 -12 -6 -3 -9 31 -10 84 -1 80 6 74 -156 -3 -79 -2 -140 2
-136 5 5 12 78 16 164 8 151 8 157 -13 185 -19 25 -20 33 -10 49 7 11 8 20 3
20 -5 0 -11 9 -14 20 -8 30 -101 70 -165 70 -65 0 -119 -26 -161 -77 -26 -31
-31 -34 -32 -18 -2 40 3 71 18 103 9 18 13 35 10 39 -4 3 -9 -2 -13 -11 -11
-30 -24 -16 -24 26 0 50 37 187 56 209 8 8 14 21 14 28 0 6 20 33 45 58 42 42
48 45 78 37 61 -16 139 -8 197 19 67 31 60 30 105 11z m-425 -8 c0 -2 -8 -10
-17 -17 -16 -13 -17 -12 -4 4 13 16 21 21 21 13z m50 -11 c-7 -8 -17 -15 -22
-15 -6 0 -5 7 2 15 7 8 17 15 22 15 6 0 5 -7 -2 -15z m-52 -35 c-7 -11 -17
-20 -22 -20 -5 0 -1 9 9 20 10 11 20 20 22 20 2 0 -2 -9 -9 -20z m2051 -64
c-3 -3 -11 5 -18 17 -13 21 -12 21 5 5 10 -10 16 -20 13 -22z m-1083 -171 c9
-39 0 -30 -20 20 -14 33 -14 37 -2 25 8 -8 18 -28 22 -45z m38 9 c3 -8 2 -12
-4 -9 -6 3 -10 10 -10 16 0 14 7 11 14 -7z m-1130 -121 c-7 -95 -14 -108 -14
-27 0 32 -3 69 -6 82 -5 16 -2 22 9 22 14 0 15 -11 11 -77z m223 -97 c-39 -14
-55 -25 -99 -65 -39 -34 -46 -19 -12 23 30 36 68 54 119 55 29 0 29 0 -8 -13z
m80 8 c-3 -3 -12 -4 -19 -1 -8 3 -5 6 6 6 11 1 17 -2 13 -5z m40 -10 c-3 -3
-12 -4 -19 -1 -8 3 -5 6 6 6 11 1 17 -2 13 -5z m478 -38 c36 -24 26 -30 -14
-10 -41 21 -131 15 -156 -9 -20 -21 -36 -22 -29 -3 17 45 143 59 199 22z
m-477 -10 c16 -16 15 -16 -21 -1 -44 18 -93 12 -146 -18 l-36 -20 22 22 c13
12 33 26 45 31 34 14 117 6 136 -14z m475 -62 c-3 -9 2 -14 13 -15 14 0 10 -5
-11 -14 -35 -16 -93 -18 -147 -6 -54 13 -47 -4 6 -18 75 -19 117 -13 205 26
30 14 36 13 68 -4 18 -10 37 -29 40 -41 22 -91 -61 -305 -112 -286 -6 3 -20
-5 -32 -16 -27 -25 -33 -25 -34 -2 0 11 -2 13 -6 4 -3 -7 5 -24 17 -37 19 -20
20 -26 8 -44 -11 -18 -11 -23 2 -31 12 -8 9 -10 -13 -10 -32 0 -60 13 -101 47
-17 14 -40 29 -53 34 -19 7 -23 16 -23 53 0 37 -4 48 -22 58 -13 7 -27 12 -33
13 -12 0 -20 85 -8 85 5 0 10 17 11 38 2 28 0 33 -8 22 -8 -11 -9 2 -5 45 6
61 18 85 41 85 7 0 20 10 28 22 l16 22 20 -22 c32 -34 110 -22 110 18 0 10 3
10 14 0 8 -6 12 -18 9 -26z m-892 9 c30 -38 39 -65 45 -135 4 -60 3 -70 -7
-53 -7 10 -16 39 -21 64 -4 25 -18 55 -30 68 -22 24 -48 31 -48 13 0 -5 5 -10
11 -10 7 0 9 -12 5 -35 -7 -34 10 -109 34 -157 22 -42 53 -68 80 -68 22 0 29
-7 40 -39 17 -51 8 -73 -27 -69 -20 2 -33 14 -52 50 -14 26 -40 67 -58 91 -76
105 -78 297 -3 297 9 0 23 -8 31 -17z m1328 -7 c17 -21 -2 -213 -27 -267 -11
-24 -38 -63 -59 -86 -21 -24 -47 -54 -58 -68 -17 -22 -22 -24 -37 -13 -16 12
-15 17 7 68 20 47 27 55 51 56 16 1 37 12 50 27 28 33 50 132 37 167 -6 16 -6
36 0 53 5 16 6 31 3 35 -15 14 -37 -28 -50 -94 -7 -38 -18 -79 -25 -92 -16
-31 -35 -28 -27 4 4 14 11 57 16 96 7 56 14 76 36 99 30 31 65 37 83 15z
m-629 -356 c0 -16 -18 -40 -31 -40 -13 0 -17 54 -5 72 10 17 12 17 24 1 6 -9
12 -24 12 -33z m328 -45 c-17 -25 -34 -43 -36 -40 -4 4 56 85 64 85 2 0 -11
-20 -28 -45z m-277 -51 c46 -29 47 -44 0 -20 -37 20 -41 20 -41 1 0 -14 -3
-13 -25 1 -26 17 -34 8 -13 -16 7 -8 5 -8 -6 1 -15 14 -16 21 -7 38 15 28 43
27 92 -5z m-231 -16 c0 -17 -3 -20 -9 -9 -9 15 -21 12 -61 -16 -23 -15 -22
-14 4 15 35 38 66 42 66 10z m105 -16 c8 -22 -4 -32 -40 -32 -36 0 -48 10 -40
32 3 8 20 14 40 14 20 0 37 -6 40 -14z m-395 -19 c-1 -12 -50 -66 -55 -61 -5
4 44 68 51 68 2 0 4 -3 4 -7z m643 -26 c20 -11 37 -25 37 -30 0 -5 -7 -4 -16
3 -8 8 -36 24 -62 37 -26 12 -36 20 -22 17 14 -4 42 -16 63 -27z m-612 5 c-12
-22 -51 -58 -51 -47 0 9 50 65 57 65 2 0 -1 -8 -6 -18z m159 13 c0 -3 -23 -17
-51 -29 -28 -13 -61 -34 -75 -47 -13 -12 -24 -18 -24 -12 0 14 61 60 102 78
36 16 48 18 48 10z m243 -52 c14 -8 -33 -32 -65 -33 -35 0 -81 17 -74 29 6 9
125 13 139 4z m91 -7 c55 -23 54 -37 -1 -29 -56 7 -57 7 -50 28 8 18 9 18 51
1z m-260 -11 c3 -8 2 -15 -3 -15 -5 0 -23 -3 -40 -6 -26 -5 -30 -4 -25 9 5 15
22 23 50 26 7 0 14 -6 18 -14z m447 -2 c13 -16 12 -17 -3 -4 -17 13 -22 21
-14 21 2 0 10 -8 17 -17z m-244 -126 c37 -25 55 -54 26 -42 -32 13 -64 18 -62
9 1 -5 0 -25 -1 -44 l-3 -35 -10 38 c-13 44 -27 49 -27 7 0 -22 -4 -28 -15
-24 -8 4 -15 12 -15 20 0 9 -11 14 -30 14 -16 0 -30 -4 -30 -10 0 -5 -4 -10
-10 -10 -5 0 -10 7 -10 16 0 11 -6 14 -20 9 -28 -9 -26 16 4 44 49 46 142 50
203 8z m-100 -129 c-3 -7 -5 -2 -5 12 0 14 2 19 5 13 2 -7 2 -19 0 -25z m10
-55 c-3 -10 -5 -4 -5 12 0 17 2 24 5 18 2 -7 2 -21 0 -30z m-250 -35 c-3 -7
-5 -2 -5 12 0 14 2 19 5 13 2 -7 2 -19 0 -25z m-247 -22 c0 -4 -25 -67 -44
-111 -8 -16 -26 -61 -41 -100 -15 -38 -42 -101 -61 -139 -19 -39 -34 -75 -34
-82 0 -6 -7 -17 -15 -24 -25 -21 -19 5 21 89 20 42 51 108 69 146 19 39 39 88
46 110 6 22 15 45 19 50 4 6 10 22 14 38 3 15 11 27 16 27 6 0 10 -2 10 -4z
m274 -46 l7 -25 -15 25 c-17 28 -21 50 -7 35 5 -6 12 -21 15 -35z m-250 -134
c4 -23 -2 -60 -19 -117 -48 -157 -53 -174 -65 -244 -17 -103 -17 -103 -50 -53
l-30 45 19 49 c11 27 39 103 62 169 22 66 45 122 50 123 5 2 9 17 9 33 0 40
16 37 24 -5z m1346 -91 c9 -8 19 -12 23 -9 3 3 27 -8 52 -25 25 -17 50 -31 56
-31 5 0 9 -4 9 -8 0 -4 14 -16 31 -26 50 -29 273 -198 282 -213 4 -7 15 -13
24 -13 22 0 125 -108 121 -127 -2 -10 -18 -20 -38 -25 -47 -11 -131 -49 -153
-69 -21 -19 -36 -89 -18 -89 6 0 13 12 16 28 4 15 10 33 14 41 8 16 59 44 100
56 35 10 27 -4 -85 -157 -189 -258 -233 -316 -258 -336 -75 -58 -466 -222
-532 -222 -11 0 -3 16 27 53 24 28 46 54 49 57 3 3 37 43 75 90 73 89 84 100
100 100 6 0 37 -25 70 -55 33 -30 67 -55 76 -55 9 0 25 12 35 27 22 35 35 50
57 71 17 16 24 52 10 52 -5 1 -35 25 -67 55 l-59 54 29 38 c16 21 40 54 53 73
31 47 131 172 149 187 24 20 9 45 -57 97 l-63 50 -23 -30 c-13 -16 -69 -86
-125 -156 -55 -71 -104 -128 -109 -128 -4 0 -38 29 -77 64 l-69 64 -20 -21
c-11 -12 -37 -44 -59 -70 l-39 -49 67 -60 c69 -62 76 -77 50 -99 -8 -7 -52
-58 -97 -113 -102 -127 -208 -250 -219 -254 -16 -7 -7 -34 20 -57 l27 -24 -25
-1 c-17 0 -44 19 -87 61 -72 70 -85 71 -143 17 -94 -89 -105 -96 -162 -91
-110 9 -117 16 -58 67 19 17 44 42 55 55 11 14 62 68 115 120 101 102 138 142
210 231 24 30 51 62 60 71 8 9 35 40 60 69 25 29 53 62 64 74 10 11 44 55 74
96 49 65 87 113 136 170 13 15 81 119 130 197 27 44 33 93 17 137 -7 17 -7 26
2 29 15 5 75 -19 97 -38z m-1184 -88 c30 -27 57 -60 60 -73 3 -13 13 -24 20
-24 17 0 74 86 74 112 0 29 20 21 34 -14 24 -58 29 -99 15 -124 -18 -34 -4
-41 37 -19 45 24 83 69 91 106 13 65 33 6 33 -98 0 -29 2 -53 5 -53 15 0 62
31 80 52 40 46 83 145 86 198 1 14 5 0 9 -30 4 -30 3 -63 -2 -72 -17 -34 30
-12 82 38 l36 34 18 -50 c10 -27 15 -54 12 -59 -4 -5 -1 -13 5 -16 7 -5 1 -17
-17 -36 l-27 -28 36 6 c36 6 37 5 37 -28 0 -32 -4 -36 -59 -61 -33 -16 -101
-61 -153 -102 -204 -161 -304 -158 -485 13 -40 38 -104 89 -142 115 -71 46
-79 58 -61 86 8 12 13 11 33 -8 30 -28 58 -31 32 -2 -15 17 -16 31 -10 119 l7
101 30 -18 c16 -9 54 -39 84 -65z m-511 52 c-9 -26 -8 -162 0 -189 9 -30 27
-24 24 8 -1 15 -1 38 -1 51 2 24 2 24 20 5 9 -10 30 -39 46 -64 25 -38 124
-172 163 -220 269 -331 376 -454 496 -570 20 -20 37 -40 37 -44 0 -4 -16 -22
-35 -40 -19 -19 -35 -36 -35 -39 0 -3 -24 -31 -53 -61 -43 -46 -59 -56 -86
-56 -37 0 -48 10 -161 155 -43 55 -106 134 -139 175 -34 41 -61 80 -61 86 0 6
10 18 23 27 12 8 44 34 70 58 l48 44 -39 60 c-21 33 -46 66 -55 73 -18 15 -30
9 -126 -62 l-53 -40 -32 35 c-17 19 -78 94 -134 167 -57 73 -107 132 -110 132
-21 0 -142 -93 -142 -109 0 -11 43 -73 91 -129 6 -7 41 -52 77 -100 36 -48 71
-90 76 -94 17 -11 -3 -36 -77 -95 l-65 -53 -59 44 c-82 63 -260 238 -246 243
6 2 33 -7 59 -22 25 -14 48 -24 51 -21 3 2 -30 22 -72 43 -82 40 -165 121
-165 159 0 25 71 93 175 170 95 71 167 114 295 179 52 26 112 63 133 81 43 39
72 45 62 13z m350 -288 c17 -10 57 -44 90 -75 33 -30 88 -79 122 -108 34 -29
65 -60 68 -68 4 -8 9 -70 12 -137 6 -130 -1 -148 -34 -93 -9 17 -20 30 -24 30
-4 0 -21 21 -37 48 -26 39 -30 54 -25 88 5 40 4 42 -73 118 -78 77 -79 78 -84
50 l-5 -27 -32 37 c-34 38 -37 54 -27 119 8 43 9 43 49 18z m-545 -50 c0 -5
-15 -18 -32 -30 -18 -11 -43 -29 -56 -41 -13 -12 -26 -19 -29 -16 -4 3 -4 8
-2 9 36 30 112 87 115 87 2 0 4 -4 4 -9z m1361 -71 l-61 -60 0 -88 c0 -64 -4
-94 -16 -111 -9 -12 -20 -19 -24 -14 -4 4 -11 58 -15 119 l-7 112 44 36 c52
44 132 88 136 75 2 -5 -24 -36 -57 -69z m723 35 c22 -19 37 -37 34 -40 -2 -3
-25 13 -49 35 -24 22 -39 40 -34 39 6 0 28 -15 49 -34z m-2119 -30 c-22 -19
-44 -34 -50 -34 -5 0 8 15 30 34 22 19 45 35 50 35 6 0 -8 -16 -30 -35z m2100
5 c37 -39 23 -39 -18 0 -18 16 -27 30 -21 30 5 0 23 -13 39 -30z m-2055 -10
c0 -5 -7 -10 -15 -10 -9 0 -18 -7 -21 -15 -4 -8 -14 -15 -23 -15 -11 0 -8 7
13 25 31 26 46 31 46 15z m2043 -37 c-7 -3 -13 -11 -13 -19 0 -9 -4 -12 -10
-9 -6 4 -5 13 2 25 14 22 3 39 -14 22 -15 -15 -38 -16 -38 -2 0 6 9 10 20 10
11 0 20 6 20 12 0 7 10 2 23 -11 15 -16 18 -25 10 -28z m-2013 5 c0 -4 -4 -8
-9 -8 -6 0 -12 4 -15 8 -3 5 1 9 9 9 8 0 15 -4 15 -9z m-50 -33 c0 -8 -7 -15
-16 -15 -14 0 -14 3 -4 15 7 8 14 15 16 15 2 0 4 -7 4 -15z m1146 -64 c-15
-17 -17 -33 -11 -123 3 -57 8 -119 10 -138 4 -27 3 -30 -4 -14 -5 11 -14 65
-21 120 -15 132 -14 129 -49 108 -37 -22 -41 -50 -29 -209 8 -121 4 -175 -13
-175 -5 0 -9 -8 -9 -17 0 -13 -7 -10 -30 12 -58 56 -70 102 -85 327 -1 15 -6
33 -12 40 -32 41 -25 45 70 44 82 -1 97 2 141 26 54 30 69 29 42 -1z m462 -3
c-13 -13 -34 -34 -48 -48 -14 -15 -18 -17 -10 -5 24 34 63 75 72 75 5 0 -1
-10 -14 -22z m-1113 -68 c21 -28 35 -54 31 -57 -3 -4 -7 -4 -9 -2 -2 2 -17 22
-33 44 -41 53 -47 65 -35 65 5 0 26 -23 46 -50z m1145 20 c0 -5 7 -10 15 -10
8 0 15 -4 15 -10 0 -14 -27 -12 -34 3 -3 9 -9 7 -19 -5 -22 -27 -30 -21 -11 7
17 25 34 33 34 15z m-1163 -45 c12 -19 18 -35 12 -35 -5 0 -15 11 -21 25 -6
14 -15 25 -20 25 -4 0 -8 5 -8 10 0 19 15 9 37 -25z m-57 -5 c9 13 13 11 29
-10 20 -25 20 -25 1 -32 -14 -5 -18 -13 -13 -25 5 -15 3 -16 -7 -6 -11 10 -10
16 4 32 20 21 4 40 -18 22 -15 -12 -26 -5 -26 18 0 14 2 14 10 1 9 -13 11 -13
20 0z m1215 -10 c-3 -5 -11 -10 -16 -10 -6 0 -7 5 -4 10 3 6 11 10 16 10 6 0
7 -4 4 -10z m35 0 c0 -5 -5 -10 -11 -10 -5 0 -7 5 -4 10 3 6 8 10 11 10 2 0 4
-4 4 -10z m120 -19 c0 -16 3 -42 6 -59 l6 -30 -55 2 c-30 0 -53 4 -50 9 2 4
14 7 25 7 28 0 47 28 48 68 0 17 5 32 10 32 6 0 10 -13 10 -29z m-1390 -21 c0
-5 -7 -10 -15 -10 -8 0 -15 5 -15 10 0 6 7 10 15 10 8 0 15 -4 15 -10z m-121
-115 c-6 -6 -16 -5 -28 2 -10 6 -36 15 -57 19 -35 6 -36 8 -15 16 13 5 32 6
41 3 21 -7 36 10 46 50 8 28 9 26 15 -25 5 -32 4 -59 -2 -65z m2111 105 c13
-9 13 -11 0 -19 -9 -6 -19 -6 -27 1 -28 23 -5 39 27 18z m-500 -34 c0 -8 -61
-12 -66 -4 -3 4 11 8 30 8 20 0 36 -2 36 -4z m-1535 -56 c18 -7 19 -8 3 -15
-22 -9 -51 1 -43 15 7 12 13 12 40 0z m1432 -42 c-2 -13 -4 -5 -4 17 -1 22 1
32 4 23 2 -10 2 -28 0 -40z m521 40 c-6 -18 -28 -21 -28 -4 0 9 7 16 16 16 9
0 14 -5 12 -12z m-2038 -52 c0 -14 -4 -28 -10 -31 -6 -4 -10 7 -10 24 0 17 5
31 10 31 6 0 10 -11 10 -24z m1650 10 c0 -3 -4 -8 -10 -11 -5 -3 -10 -1 -10 4
0 6 5 11 10 11 6 0 10 -2 10 -4z m34 -11 c-4 -8 -8 -15 -10 -15 -2 0 -4 7 -4
15 0 8 4 15 10 15 5 0 7 -7 4 -15z m-1834 -29 c0 -8 -4 -18 -10 -21 -5 -3 -10
3 -10 14 0 12 5 21 10 21 6 0 10 -6 10 -14z m1860 9 c0 -3 -11 -18 -25 -33
-15 -16 -25 -21 -25 -13 0 8 -8 20 -17 27 -16 12 -16 13 -1 14 9 0 19 -6 22
-12 4 -10 9 -8 18 5 12 16 28 23 28 12z m-1820 -19 c0 -3 -4 -8 -10 -11 -5 -3
-10 -1 -10 4 0 6 5 11 10 11 6 0 10 -2 10 -4z m-36 -40 c16 6 17 4 7 -14 -7
-12 -14 -22 -17 -22 -11 0 -43 45 -43 60 -1 10 5 8 17 -8 12 -16 23 -21 36
-16z m1886 19 c0 -12 -19 -12 -23 0 -4 9 -1 12 9 8 7 -3 14 -7 14 -8z m-1990
-5 c0 -5 -2 -10 -4 -10 -3 0 -8 5 -11 10 -3 6 -1 10 4 10 6 0 11 -4 11 -10z
m65 -49 c-6 -5 -44 41 -44 54 0 6 11 -3 24 -20 13 -16 22 -31 20 -34z m85 28
c0 -6 -4 -7 -10 -4 -5 3 -10 11 -10 16 0 6 5 7 10 4 6 -3 10 -11 10 -16z m145
-66 c27 -38 60 -81 74 -97 l26 -28 -25 7 c-47 13 -230 104 -230 114 0 11 79
71 95 71 6 0 33 -30 60 -67z m1710 -33 c-3 -5 -12 -10 -18 -10 -7 0 -6 4 3 10
19 12 23 12 15 0z m-585 -105 c0 -8 -4 -15 -10 -15 -5 0 -10 -7 -10 -15 0 -19
14 -19 30 0 7 8 16 12 21 9 14 -8 10 -24 -6 -24 -8 0 -15 -4 -15 -9 0 -21 -45
-20 -65 1 l-20 21 28 -17 c28 -17 28 -17 17 5 -9 17 -9 23 0 29 7 4 9 13 6 19
-4 6 0 11 8 11 9 0 16 -7 16 -15z m-70 -60 c13 -14 19 -25 13 -25 -5 0 -20 11
-33 25 -13 14 -19 25 -13 25 5 0 20 -11 33 -25z m-183 -20 c30 -26 13 -35 -21
-10 -16 12 -20 12 -33 -1 -25 -25 -37 -15 -13 11 29 31 32 31 67 0z"/>
<path d="M3232 2105 c0 -16 2 -22 5 -12 2 9 2 23 0 30 -3 6 -5 -1 -5 -18z"/>
<path d="M4123 4498 c-18 -13 -39 -40 -48 -61 -23 -57 -11 -99 41 -147 58 -53
87 -53 139 0 l39 40 -29 30 c-38 39 -63 47 -80 23 -11 -15 -11 -21 1 -35 17
-18 5 -32 -20 -22 -40 16 -27 95 19 116 31 14 74 -3 82 -32 4 -15 14 -20 40
-20 31 0 34 2 27 23 -28 91 -138 136 -211 85z"/>
<path d="M1113 4481 c-27 -22 -28 -39 -9 -86 17 -40 10 -43 -44 -15 l-39 20
-30 -26 c-17 -14 -31 -29 -31 -33 0 -4 35 -18 78 -32 51 -16 90 -35 115 -58
30 -27 42 -33 55 -25 36 23 37 41 5 77 -24 28 -33 50 -43 116 -8 44 -18 81
-24 81 -6 -1 -21 -9 -33 -19z"/>
<path d="M4339 4319 c-62 -70 -80 -110 -68 -153 17 -59 82 -101 138 -90 25 5
87 51 155 115 6 5 -1 21 -19 39 l-29 30 -46 -43 c-66 -64 -89 -78 -112 -66
-31 17 -20 48 39 110 60 64 62 75 17 106 -19 12 -25 8 -75 -48z"/>
<path d="M1525 4240 c-3 -6 1 -7 9 -4 18 7 21 14 7 14 -6 0 -13 -4 -16 -10z"/>
<path d="M824 4198 c-47 -54 -47 -51 -3 -124 23 -38 55 -89 72 -113 l29 -43
23 28 c20 26 22 32 10 54 -12 22 -10 28 11 55 18 23 26 27 36 17 6 -6 19 -12
28 -12 20 1 55 49 44 60 -7 7 -219 100 -228 100 -1 0 -11 -10 -22 -22z m83
-81 c15 -8 19 -17 14 -26 -10 -16 -27 -8 -41 20 -12 22 -5 24 27 6z"/>
<path d="M3941 4137 c2 -2 18 -11 34 -21 l30 -17 -24 20 c-13 12 -28 21 -34
21 -6 0 -8 -1 -6 -3z"/>
<path d="M4540 4110 c-24 -24 -25 -41 -5 -106 8 -27 15 -50 15 -51 0 -2 -7 -3
-16 -3 -9 0 -22 17 -31 40 -14 34 -21 40 -45 40 -34 0 -36 -17 -9 -76 43 -94
145 -113 174 -32 3 10 -1 40 -9 69 -9 28 -13 53 -10 56 9 9 34 -16 40 -41 5
-22 51 -45 63 -32 15 14 -12 80 -46 116 -44 46 -88 53 -121 20z"/>
<path d="M710 4055 l-22 -35 26 -46 25 -45 -54 6 c-53 7 -54 7 -74 -26 -11
-18 -18 -36 -15 -41 3 -4 41 -8 85 -8 70 0 84 -3 120 -27 l41 -27 19 25 c25
33 24 42 -12 68 -20 15 -45 53 -70 107 -22 46 -41 84 -43 84 -3 0 -14 -16 -26
-35z"/>
<path d="M4715 3955 c-18 -15 -18 -16 -2 -44 9 -16 17 -32 17 -35 0 -3 -33
-27 -72 -53 -40 -25 -74 -48 -76 -49 -8 -5 29 -64 40 -64 7 0 42 18 79 40 37
22 72 40 78 40 6 0 17 -13 26 -30 17 -34 22 -35 49 -15 18 13 17 16 -17 79
-50 91 -86 146 -95 146 -4 0 -16 -7 -27 -15z"/>
<path d="M528 3764 c-10 -19 -18 -41 -18 -48 0 -8 40 -56 89 -107 l89 -94 18
37 c17 36 17 38 -1 58 -15 17 -16 24 -5 50 10 24 18 30 44 30 25 0 36 7 50 31
10 17 16 32 14 34 -7 7 -206 45 -235 45 -22 0 -32 -8 -45 -36z m128 -56 c2 -2
-1 -10 -6 -18 -8 -13 -14 -10 -37 12 l-27 28 33 -10 c19 -5 35 -11 37 -12z"/>
<path d="M4778 3662 c-60 -31 -108 -59 -108 -62 0 -3 9 -20 20 -38 l20 -32
110 55 c103 52 109 56 100 77 -6 13 -13 31 -16 41 -4 9 -9 17 -13 17 -3 0 -54
-26 -113 -58z"/>
<path d="M445 3588 c-7 -18 -11 -36 -9 -40 3 -4 32 -24 64 -44 33 -20 59 -38
57 -40 -1 -1 -36 1 -77 7 -41 5 -77 6 -81 1 -4 -4 -10 -21 -14 -39 -6 -30 -3
-34 59 -78 36 -26 66 -48 66 -49 0 -2 -33 3 -72 11 -40 7 -78 11 -84 9 -6 -2
-16 -28 -22 -58 -7 -29 -17 -72 -24 -94 -11 -39 -10 -44 21 -94 l33 -53 -41 7
c-44 7 -40 11 -56 -67 -4 -23 -4 -23 128 -45 103 -18 108 -18 117 -1 6 10 10
31 10 48 0 26 -4 31 -23 31 -13 0 -32 9 -42 20 -18 19 -17 20 38 45 49 21 57
28 63 59 11 61 7 62 -94 14 -72 -34 -65 -37 -108 46 l-26 49 126 -5 125 -5 16
45 c8 25 15 47 15 48 0 1 -26 21 -57 44 l-58 41 45 -6 c25 -4 55 -8 67 -11 18
-3 26 4 43 43 11 25 17 50 13 54 -32 29 -185 139 -193 139 -6 0 -17 -15 -25
-32z"/>
<path d="M4843 3531 c-56 -25 -104 -49 -107 -52 -10 -10 15 -69 29 -69 7 0 35
9 61 20 26 11 48 19 50 17 2 -1 -17 -29 -43 -61 -44 -57 -45 -60 -34 -97 7
-22 17 -39 24 -39 7 0 60 16 118 35 57 19 105 35 107 35 4 0 -5 30 -19 67 l-8
23 -57 -25 c-31 -14 -59 -25 -61 -25 -3 0 16 29 41 65 25 36 46 70 46 75 0 14
-33 80 -39 79 -3 -1 -52 -22 -108 -48z"/>
<path d="M4920 3222 c-50 -27 -72 -74 -66 -140 6 -63 30 -109 76 -139 38 -27
67 -29 115 -9 51 22 70 59 69 132 -3 135 -94 208 -194 156z m118 -100 c33 -42
1 -102 -54 -102 -40 0 -64 22 -64 59 0 59 81 88 118 43z"/>
<path d="M405 2668 c-2 -7 -6 -26 -8 -43 -2 -16 -7 -38 -12 -48 -4 -10 -2 -24
6 -33 10 -13 10 -17 -2 -25 -11 -7 -10 -9 7 -9 11 0 25 5 32 12 20 20 35 -4
22 -36 -15 -41 -13 -46 19 -46 28 0 29 2 24 38 -4 31 0 44 21 69 28 33 24 53
-6 26 -12 -11 -18 -12 -18 -3 0 8 -8 10 -21 7 -24 -6 -59 11 -59 29 0 6 7 17
15 24 20 16 19 50 0 50 -9 0 -18 -6 -20 -12z m25 -7 c0 -6 -4 -13 -10 -16 -5
-3 -10 1 -10 9 0 9 5 16 10 16 6 0 10 -4 10 -9z m5 -102 c0 -8 -8 -13 -20 -11
-28 5 -32 12 -15 22 19 12 35 7 35 -11z m30 -9 c3 -5 1 -10 -4 -10 -6 0 -11 5
-11 10 0 6 2 10 4 10 3 0 8 -4 11 -10z"/>
<path d="M5057 2603 c-4 -3 -7 -19 -7 -34 0 -20 -9 -35 -32 -52 -51 -37 -57
-39 -51 -17 6 23 -15 28 -23 5 -5 -11 -11 -12 -25 -4 -26 13 -25 -4 2 -41 16
-21 20 -37 16 -59 -6 -28 -4 -31 18 -31 23 0 25 4 25 45 0 42 11 58 25 35 3
-5 17 -10 30 -10 13 0 26 -6 28 -12 3 -8 6 -6 6 5 1 10 9 17 22 17 21 0 22
-14 3 -64 -5 -12 0 -16 22 -16 28 0 29 2 29 46 0 36 5 50 23 65 14 10 20 23
16 30 -5 8 -13 4 -25 -12 -16 -21 -19 -22 -19 -5 0 14 -5 17 -21 13 -24 -6
-59 11 -59 29 0 6 7 17 15 24 19 15 20 50 2 50 -8 0 -17 -3 -20 -7z m23 -12
c0 -6 -4 -13 -10 -16 -5 -3 -10 1 -10 9 0 9 5 16 10 16 6 0 10 -4 10 -9z m-42
-80 c-10 -17 -9 -23 6 -40 19 -21 19 -21 -3 -21 -29 0 -37 25 -17 55 19 29 32
34 14 6z m52 -28 c0 -10 -6 -13 -16 -9 -9 3 -20 6 -25 6 -16 0 -9 18 9 23 23
5 32 -1 32 -20z m25 -3 c3 -5 1 -10 -4 -10 -6 0 -11 5 -11 10 0 6 2 10 4 10 3
0 8 -4 11 -10z"/>
<path d="M355 2580 c-22 -24 -35 -26 -35 -5 0 20 -19 19 -26 0 -5 -12 -9 -13
-20 -4 -20 16 -31 2 -16 -19 23 -32 32 -63 26 -88 -5 -21 -3 -24 20 -24 24 0
26 3 26 43 0 49 7 62 26 46 9 -8 11 -5 7 11 -3 12 2 29 12 40 10 11 14 20 8
20 -5 0 -18 -9 -28 -20z"/>
<path d="M162 2535 c0 -62 13 -115 30 -115 5 0 7 -3 5 -7 -2 -5 6 -18 19 -31
13 -12 24 -20 24 -16 0 4 8 1 18 -8 54 -45 135 -50 217 -13 30 14 54 29 53 33
-2 4 10 20 25 36 14 16 25 32 22 35 -2 4 3 30 11 59 12 39 13 56 4 69 -9 14
-10 15 -7 2 11 -34 -24 -120 -64 -160 -49 -49 -74 -59 -145 -59 -112 0 -189
70 -205 185 l-7 50 0 -60z"/>
<path d="M5232 2503 c1 -4 -2 -30 -6 -56 -11 -70 -80 -140 -153 -156 -107 -22
-197 23 -238 122 -8 20 -20 37 -25 37 -16 0 -12 -14 20 -77 41 -79 93 -116
173 -121 58 -4 137 13 137 30 0 4 5 8 11 8 16 0 58 50 65 77 4 13 10 20 15 17
5 -3 9 7 10 23 0 15 1 43 2 61 1 19 -1 36 -6 39 -4 2 -6 1 -5 -4z"/>
<path d="M4800 2486 c0 -9 5 -16 10 -16 6 0 10 4 10 9 0 6 -4 13 -10 16 -5 3
-10 -1 -10 -9z"/>
<path d="M350 2464 c0 -22 4 -25 27 -22 18 2 29 10 31 22 2 11 0 16 -6 12 -6
-3 -13 -2 -17 4 -12 20 -35 10 -35 -16z"/>
<path d="M5007 2413 c-4 -3 -7 -15 -7 -25 0 -27 53 -21 58 6 2 11 0 16 -6 12
-6 -3 -13 -2 -17 4 -7 12 -19 13 -28 3z"/>
<path d="M1 1088 l-1 -1088 2700 0 2700 0 -1 1073 -1 1072 -27 -105 c-176
-664 -602 -1235 -1197 -1602 -611 -377 -1376 -505 -2084 -348 -421 93 -858
306 -1174 573 -442 373 -745 849 -881 1382 l-34 130 0 -1087z"/>
<path d="M486 2044 c-118 -20 -117 -19 -96 -96 10 -35 12 -36 49 -31 38 5 38
5 50 -40 19 -67 64 -117 106 -117 37 0 62 19 71 56 5 19 -22 167 -42 232 -4
15 -34 14 -138 -4z m108 -110 c3 -9 6 -29 6 -46 0 -25 -3 -29 -22 -26 -27 4
-54 68 -34 80 19 13 44 9 50 -8z"/>
<path d="M4790 2019 c-6 -23 -8 -45 -3 -49 4 -4 35 -13 68 -20 33 -7 68 -16
78 -21 23 -13 22 -60 -1 -90 -19 -22 -19 -22 -84 -6 -36 9 -72 19 -82 23 -12
5 -20 -3 -31 -30 -8 -19 -15 -41 -15 -49 0 -16 122 -57 169 -57 71 0 140 122
128 228 -6 58 -31 81 -103 98 -99 23 -111 20 -124 -27z"/>
<path d="M461 1719 c0 -8 6 -30 13 -49 10 -28 19 -36 46 -40 28 -4 35 -12 52
-54 18 -46 18 -50 2 -68 -17 -18 -17 -21 4 -63 24 -50 36 -55 53 -24 6 12 40
55 76 96 l66 75 -14 40 c-20 61 -27 66 -119 77 -47 6 -106 13 -132 17 -38 5
-48 4 -47 -7z m206 -116 c-27 -27 -29 -27 -42 -9 -20 26 -10 36 33 36 l37 0
-28 -27z"/>
<path d="M4674 1665 c-7 -19 -14 -38 -14 -43 0 -5 30 -21 67 -36 38 -15 71
-33 75 -39 21 -33 -7 -87 -45 -87 -9 0 -45 14 -79 30 -34 17 -65 30 -70 30 -4
0 -17 -18 -28 -39 l-20 -39 45 -27 c138 -80 200 -64 260 68 31 66 28 114 -7
146 -16 16 -145 71 -164 71 -3 0 -12 -16 -20 -35z"/>
<path d="M723 1427 c-57 -29 -103 -55 -103 -60 0 -17 46 -77 60 -77 8 1 24 7
34 15 11 8 23 15 27 15 16 0 17 -32 2 -75 -15 -45 -15 -46 13 -86 15 -22 31
-42 35 -45 8 -5 29 58 29 90 0 13 4 16 18 11 43 -19 61 -17 88 10 21 21 25 32
20 58 -7 33 -98 190 -113 194 -4 1 -54 -22 -110 -50z m131 -79 c9 -12 16 -30
16 -40 0 -28 -36 -21 -60 11 -19 28 -19 30 -3 40 25 15 30 14 47 -11z"/>
<path d="M4509 1364 c-20 -32 -21 -42 -12 -90 5 -30 8 -54 5 -54 -2 0 -18 10
-34 22 l-31 21 -28 -34 c-16 -19 -27 -37 -26 -41 3 -9 179 -138 188 -138 10 0
59 59 59 71 0 4 -11 16 -25 25 -46 30 -28 64 35 64 47 0 76 16 100 55 12 20
20 38 17 41 -3 3 -40 -1 -82 -10 -43 -9 -83 -16 -90 -16 -7 0 -17 25 -24 60
-7 33 -16 60 -21 60 -4 0 -18 -16 -31 -36z"/>
<path d="M906 1146 c-49 -45 -50 -94 -3 -162 41 -62 96 -94 161 -94 43 0 53 4
82 36 40 41 43 76 15 132 -35 69 -113 122 -178 122 -34 0 -48 -6 -77 -34z
m161 -68 c45 -42 19 -108 -43 -108 -23 0 -38 7 -53 26 -27 34 -26 50 4 79 30
31 62 32 92 3z"/>
<path d="M4301 1108 l-35 -31 49 -45 c28 -24 69 -61 93 -80 l43 -35 36 35 35
35 -79 63 c-43 35 -85 69 -93 76 -12 10 -21 7 -49 -18z"/>
<path d="M4192 1007 c-28 -29 -32 -40 -32 -87 l0 -54 -28 27 c-34 33 -39 33
-77 3 l-29 -24 72 -86 c40 -47 78 -86 84 -86 6 0 26 12 45 26 l34 26 -21 23
c-12 13 -20 31 -18 41 3 15 13 17 70 15 64 -2 68 -1 105 33 l38 35 -41 1 c-23
0 -68 3 -100 6 l-60 6 4 64 c3 35 0 64 -5 64 -5 0 -23 -15 -41 -33z"/>
<path d="M1185 883 c-38 -41 -71 -79 -73 -84 -4 -10 48 -58 64 -59 6 0 19 9
29 20 10 11 29 20 42 20 21 0 23 -4 23 -55 0 -52 2 -56 37 -80 53 -35 63 -33
52 13 -5 20 -9 58 -9 84 l0 46 65 7 c36 4 65 11 65 15 0 5 -16 18 -36 31 -30
18 -44 21 -96 15 l-60 -6 26 31 26 30 -29 25 c-16 13 -35 24 -42 23 -8 0 -45
-34 -84 -76z"/>
<path d="M1512 767 c-11 -12 -43 -55 -72 -96 -40 -57 -49 -76 -38 -83 19 -13
66 -38 71 -38 6 0 116 165 122 182 3 7 -10 23 -29 35 l-34 22 -20 -22z"/>
<path d="M3808 741 c-126 -41 -183 -138 -123 -210 38 -45 83 -56 148 -37 72
21 118 54 141 99 16 34 17 42 5 74 -8 20 -26 45 -40 55 -30 22 -92 31 -131 19z
m60 -81 c34 -32 29 -76 -9 -96 -41 -21 -75 -11 -94 26 -34 65 49 120 103 70z"/>
<path d="M1663 647 c-32 -24 -79 -56 -105 -72 -26 -17 -47 -34 -47 -40 0 -5
18 -18 40 -29 38 -17 41 -17 59 -1 18 16 21 16 64 0 40 -15 46 -22 46 -47 0
-29 13 -38 75 -54 l24 -6 -5 123 c-2 67 -6 125 -9 127 -3 3 -23 13 -45 23
l-39 18 -58 -42z m70 -75 c-7 -27 -10 -29 -33 -20 l-25 9 30 24 c35 29 39 27
28 -13z"/>
<path d="M3523 615 l-32 -14 24 -53 c38 -84 40 -104 15 -118 -11 -6 -33 -10
-48 -8 -23 3 -30 13 -52 70 -15 37 -29 70 -32 73 -11 11 -90 -16 -85 -28 2 -7
13 -38 23 -70 20 -64 55 -106 88 -108 58 -3 104 5 143 23 49 23 73 51 73 87 0
32 -60 161 -74 161 -6 -1 -25 -7 -43 -15z"/>
<path d="M1990 568 c0 -7 10 -46 22 -87 18 -61 20 -78 10 -104 -14 -36 -10
-42 41 -55 38 -11 39 -11 54 26 8 21 46 66 86 103 l72 66 -49 7 c-46 7 -50 6
-85 -28 -20 -20 -39 -36 -43 -36 -3 0 -8 22 -12 48 -6 46 -8 50 -45 60 -48 15
-51 15 -51 0z"/>
<path d="M3182 523 c-21 -4 -22 -8 -17 -47 l7 -43 -42 -7 c-49 -8 -60 -3 -60
27 0 41 -14 50 -56 40 -24 -6 -38 -15 -37 -24 16 -142 27 -209 37 -209 6 0 28
3 50 7 l38 6 -6 43 c-5 41 -4 44 19 49 14 3 36 7 50 10 22 5 26 1 36 -38 l11
-44 46 10 c26 5 48 10 49 11 2 1 -11 49 -27 107 -17 57 -30 105 -30 106 0 4
-40 1 -68 -4z"/>
<path d="M2304 448 c-21 -29 -55 -74 -76 -100 -21 -25 -35 -49 -30 -52 5 -3
27 -8 49 -12 34 -5 43 -3 56 16 14 20 21 21 66 15 40 -5 51 -11 51 -25 0 -24
5 -27 64 -35 45 -7 49 -6 43 11 -7 25 -78 218 -80 220 -1 1 -25 5 -53 9 l-51
6 -39 -53z m90 -50 c6 -25 4 -28 -19 -28 -25 0 -25 0 -10 31 19 35 20 35 29
-3z"/>
<path d="M2734 461 c-51 -23 -74 -55 -74 -101 0 -74 53 -110 160 -110 67 0
130 19 130 39 0 4 -11 13 -24 20 -19 11 -30 11 -60 0 -44 -16 -85 -4 -102 30
-26 51 26 95 93 81 26 -6 36 -3 54 16 l22 23 -27 11 c-43 16 -127 11 -172 -9z"/>
</g>
</svg>
